# xmcd
#
# Track frame offsets: 
#        150
#        14470
#        33598
#        53910
#        77505
#        96410
#        110283
#        124160
#        139578
#        153493
#        172115
#        188323
#        205855
#        224348
#        240615
#        252293
#        266965
#
# Disc length: 3824 seconds
#
# Revision: 1
# Processed by: cddbd v1.5.2PL0 Copyright (c) Steve Scherf et al.
# Submitted via: ExactAudioCopyFreeDBPlugin 1.0
#
DISCID=ee0eee11
DTITLE=Champion Jack Dupree - Trouble Trouble
DYEAR=1991
DGENRE=Blues
TTITLE0=You Can Make It If You Try
TTITLE1=Cryin' Woman Blues
TTITLE2=Schoolday Blues
TTITLE3=Free And Equal
TTITLE4=Carolina Sunrise
TTITLE5=Gravier Street Special
TTITLE6=Drinking Wine Spodieodie
TTITLE7=Oh Baby Blues
TTITLE8=Kind Hearted Woman
TTITLE9=My Heart Beats For You
TTITLE10=I Love To Be With You
TTITLE11=When A Young Girl Is Eighteen
TTITLE12=Broken Hearted Blues
TTITLE13=Trouble, Trouble
TTITLE14=I Ain't Going To Be Your Lowdown Dog
TTITLE15=Number Nine
TTITLE16=Blues Before Sunrise
EXTD=
EXTT0=
EXTT1=
EXTT2=
EXTT3=
EXTT4=
EXTT5=
EXTT6=
EXTT7=
EXTT8=
EXTT9=
EXTT10=
EXTT11=
EXTT12=
EXTT13=
EXTT14=
EXTT15=
EXTT16=
PLAYORDER=
